<svg xmlns="http://www.w3.org/2000/svg" viewBox="0 0 1200 630" width="1200" height="630">
  <defs>
    <pattern id="grid" width="40" height="40" patternUnits="userSpaceOnUse">
      <path d="M 40 0 L 0 0 0 40" fill="none" stroke="#D8D2EE" stroke-width="1"></path>
    </pattern>
    <pattern id="grid-strong" width="200" height="200" patternUnits="userSpaceOnUse">
      <path d="M 200 0 L 0 0 0 200" fill="none" stroke="#C4BCE0" stroke-width="1"></path>
    </pattern>
    <marker id="arrow" viewBox="0 0 10 10" refX="9" refY="5" markerWidth="6" markerHeight="6" orient="auto-start-reverse">
      <path d="M0 0 L10 5 L0 10 z" fill="#7C72B5"></path>
    </marker>
  </defs>

  
  <rect width="1200" height="630" fill="#F8F6FB"></rect>
  <rect width="1200" height="630" fill="url(#grid)"></rect>
  <rect width="1200" height="630" fill="url(#grid-strong)"></rect>

  
  <text x="80" y="135" font-family="IBM Plex Sans, sans-serif" font-weight="300" font-size="72" fill="#1E1A3D" letter-spacing="-1.5">It&#39;s all about the</text>
  <text x="592" y="135" font-family="Instrument Serif, Times, serif" font-style="italic" font-size="80" fill="#3D2F8C">harness</text>
  <text x="853" y="135" font-family="IBM Plex Sans, sans-serif" font-weight="300" font-size="72" fill="#1E1A3D">.</text>

  <text x="80" y="225" font-family="IBM Plex Sans, sans-serif" font-weight="300" font-size="72" fill="#1E1A3D" letter-spacing="-1.5">It&#39;s</text>
  <text x="200" y="225" font-family="Instrument Serif, Times, serif" font-style="italic" font-size="80" fill="#3D2F8C">AI&#39;s</text>
  <text x="350" y="225" font-family="IBM Plex Sans, sans-serif" font-weight="300" font-size="72" fill="#1E1A3D">harness.</text>

  
  <text x="80" y="295" font-family="IBM Plex Mono, monospace" font-size="22" fill="#564E80" letter-spacing="0">One canvas. One neutral FlowSpec.</text>
  <text x="80" y="328" font-family="IBM Plex Mono, monospace" font-size="22" fill="#564E80">Four runtimes plus A2A.</text>

  
  <g transform="translate(80, 400)">
    
    <path d="M 80 50 C 140 50, 140 30, 200 30" fill="none" stroke="#7C72B5" stroke-width="1.5" marker-end="url(#arrow)"></path>
    <path d="M 80 50 C 140 50, 140 90, 200 90" fill="none" stroke="#7C72B5" stroke-width="1.5" marker-end="url(#arrow)"></path>
    <path d="M 260 30 C 320 30, 320 30, 380 30" fill="none" stroke="#7C72B5" stroke-width="1.5" marker-end="url(#arrow)"></path>
    <path d="M 260 90 C 320 90, 320 90, 380 90" fill="none" stroke="#7C72B5" stroke-width="1.5" marker-end="url(#arrow)"></path>
    <path d="M 440 30 C 500 30, 500 60, 560 60" fill="none" stroke="#7C72B5" stroke-width="1.5" marker-end="url(#arrow)"></path>
    <path d="M 440 90 C 500 90, 500 60, 560 60" fill="none" stroke="#7C72B5" stroke-width="1.5" marker-end="url(#arrow)"></path>
    <path d="M 620 60 C 680 60, 680 60, 740 60" fill="none" stroke="#7C72B5" stroke-width="1.5" marker-end="url(#arrow)"></path>

    
    <g><rect x="20" y="30" width="60" height="40" rx="3" fill="#F8F6FB" stroke="#7C72B5"></rect><text x="50" y="48" text-anchor="middle" font-family="IBM Plex Mono" font-size="9" fill="#8478B8">ENTRY</text><text x="50" y="62" text-anchor="middle" font-family="IBM Plex Mono" font-size="11" fill="#1E1A3D" font-weight="500">input</text></g>
    <g><rect x="200" y="10" width="60" height="40" rx="3" fill="#EFEBFB" stroke="#5B4FC7"></rect><text x="230" y="28" text-anchor="middle" font-family="IBM Plex Mono" font-size="9" fill="#3D2F8C">LLM</text><text x="230" y="42" text-anchor="middle" font-family="IBM Plex Mono" font-size="11" fill="#1E1A3D" font-weight="500">planner</text></g>
    <g><rect x="200" y="70" width="60" height="40" rx="3" fill="#F8F6FB" stroke="#7C72B5"></rect><text x="230" y="88" text-anchor="middle" font-family="IBM Plex Mono" font-size="9" fill="#8478B8">TOOL</text><text x="230" y="102" text-anchor="middle" font-family="IBM Plex Mono" font-size="11" fill="#1E1A3D" font-weight="500">tools</text></g>
    <g><rect x="380" y="10" width="60" height="40" rx="3" fill="#F8F6FB" stroke="#7C72B5"></rect><text x="410" y="28" text-anchor="middle" font-family="IBM Plex Mono" font-size="9" fill="#8478B8">HITL</text><text x="410" y="42" text-anchor="middle" font-family="IBM Plex Mono" font-size="11" fill="#1E1A3D" font-weight="500">review</text></g>
    <g><rect x="380" y="70" width="60" height="40" rx="3" fill="#F8F6FB" stroke="#7C72B5"></rect><text x="410" y="88" text-anchor="middle" font-family="IBM Plex Mono" font-size="9" fill="#8478B8">MEMORY</text><text x="410" y="102" text-anchor="middle" font-family="IBM Plex Mono" font-size="11" fill="#1E1A3D" font-weight="500">memory</text></g>
    <g><rect x="560" y="40" width="60" height="40" rx="3" fill="#F8F6FB" stroke="#7C72B5"></rect><text x="590" y="58" text-anchor="middle" font-family="IBM Plex Mono" font-size="9" fill="#8478B8">GUARD</text><text x="590" y="72" text-anchor="middle" font-family="IBM Plex Mono" font-size="11" fill="#1E1A3D" font-weight="500">policy</text></g>
    <g><rect x="740" y="40" width="60" height="40" rx="3" fill="#F8F6FB" stroke="#7C72B5"></rect><text x="770" y="58" text-anchor="middle" font-family="IBM Plex Mono" font-size="9" fill="#8478B8">EXIT</text><text x="770" y="72" text-anchor="middle" font-family="IBM Plex Mono" font-size="11" fill="#1E1A3D" font-weight="500">output</text></g>
  </g>

  
  <g transform="translate(80, 555)">
    <g><circle cx="0" cy="0" r="4" fill="#5B4FC7"></circle><text x="14" y="5" font-family="IBM Plex Mono" font-size="15" fill="#1E1A3D" font-weight="500">LangGraph</text></g>
    <g transform="translate(160, 0)"><circle cx="0" cy="0" r="4" fill="#5B4FC7"></circle><text x="14" y="5" font-family="IBM Plex Mono" font-size="15" fill="#1E1A3D" font-weight="500">CrewAI</text></g>
    <g transform="translate(285, 0)"><circle cx="0" cy="0" r="4" fill="#5B4FC7"></circle><text x="14" y="5" font-family="IBM Plex Mono" font-size="15" fill="#1E1A3D" font-weight="500">Mastra</text></g>
    <g transform="translate(395, 0)"><circle cx="0" cy="0" r="4" fill="#5B4FC7"></circle><text x="14" y="5" font-family="IBM Plex Mono" font-size="15" fill="#1E1A3D" font-weight="500">MS Agent Framework</text></g>
    <g transform="translate(680, 0)"><circle cx="0" cy="0" r="4" fill="#3D2F8C"></circle><text x="14" y="5" font-family="IBM Plex Mono" font-size="15" fill="#3D2F8C" font-weight="500">+ A2A</text></g>
  </g>

  
  <g transform="translate(1040, 80)">
    <line x1="-8" y1="-6" x2="6" y2="-6" stroke="#3D2F8C" stroke-width="1.5"></line>
    <line x1="-8" y1="-6" x2="-1" y2="8" stroke="#3D2F8C" stroke-width="1.5"></line>
    <line x1="6" y1="-6" x2="-1" y2="8" stroke="#3D2F8C" stroke-width="1.5"></line>
    <circle cx="-8" cy="-6" r="3" fill="#5B4FC7"></circle>
    <circle cx="6" cy="-6" r="3" fill="#5B4FC7"></circle>
    <circle cx="-1" cy="8" r="3" fill="#1E1A3D"></circle>
    <text x="20" y="6" font-family="IBM Plex Mono" font-size="20" font-weight="500" fill="#1E1A3D">buildaharness</text>
  </g>

  
  <text x="1120" y="600" text-anchor="end" font-family="IBM Plex Mono" font-size="11" fill="#8478B8" letter-spacing="2">SPEC · 0.1.0 · APACHE 2.0 · DESIGN STAGE</text>
</svg>